<svg width="300" height="300" viewBox="0 0 300 300" fill="none" xmlns="http://www.w3.org/2000/svg">
<rect width="300" height="300" rx="54.5455" fill="url(#paint0_linear_82_2197)"/>
<path d="M25.9969 205.273V103.545H45.0878V117.727L43.315 113.636C45.7696 109.909 49.0878 107.045 53.2696 105.045C57.5423 102.955 62.4059 101.909 67.8605 101.909C74.9514 101.909 81.3605 103.636 87.0878 107.091C92.815 110.545 97.3605 115.227 100.724 121.136C104.088 126.955 105.77 133.5 105.77 140.773C105.77 147.955 104.088 154.5 100.724 160.409C97.4514 166.318 92.9514 171 87.2241 174.455C81.4969 177.909 74.9969 179.636 67.7241 179.636C62.6332 179.636 57.9059 178.727 53.5423 176.909C49.2696 175 45.815 172.227 43.1787 168.591L46.4514 164.364V205.273H25.9969ZM65.2696 161.227C69.0878 161.227 72.4514 160.364 75.3605 158.636C78.2696 156.909 80.5423 154.5 82.1787 151.409C83.815 148.318 84.6332 144.773 84.6332 140.773C84.6332 136.773 83.815 133.273 82.1787 130.273C80.5423 127.182 78.2696 124.773 75.3605 123.045C72.4514 121.227 69.0878 120.318 65.2696 120.318C61.6332 120.318 58.3605 121.182 55.4514 122.909C52.6332 124.636 50.4059 127.045 48.7696 130.136C47.2241 133.227 46.4514 136.773 46.4514 140.773C46.4514 144.773 47.2241 148.318 48.7696 151.409C50.4059 154.5 52.6332 156.909 55.4514 158.636C58.3605 160.364 61.6332 161.227 65.2696 161.227ZM140.795 179.636C135.431 179.636 130.795 178.773 126.886 177.045C122.977 175.318 119.977 172.864 117.886 169.682C115.795 166.409 114.749 162.545 114.749 158.091C114.749 153.909 115.704 150.227 117.613 147.045C119.522 143.773 122.431 141.045 126.34 138.864C130.34 136.682 135.295 135.136 141.204 134.227L163.977 130.545V145.545L144.886 148.955C141.977 149.5 139.749 150.455 138.204 151.818C136.658 153.091 135.886 154.955 135.886 157.409C135.886 159.682 136.749 161.455 138.477 162.727C140.204 164 142.34 164.636 144.886 164.636C148.249 164.636 151.204 163.909 153.749 162.455C156.295 161 158.249 159.045 159.613 156.591C161.068 154.045 161.795 151.273 161.795 148.273V128.909C161.795 126.091 160.658 123.727 158.386 121.818C156.204 119.909 153.204 118.955 149.386 118.955C145.749 118.955 142.522 119.955 139.704 121.955C136.977 123.955 134.977 126.591 133.704 129.864L117.34 122.091C118.795 117.909 121.113 114.318 124.295 111.318C127.477 108.318 131.295 106 135.749 104.364C140.204 102.727 145.068 101.909 150.34 101.909C156.613 101.909 162.158 103.045 166.977 105.318C171.795 107.591 175.522 110.773 178.158 114.864C180.886 118.864 182.249 123.545 182.249 128.909V178H163.158V166L167.795 165.182C165.613 168.455 163.204 171.182 160.568 173.364C157.931 175.455 154.977 177 151.704 178C148.431 179.091 144.795 179.636 140.795 179.636ZM232.296 179.636C225.023 179.636 218.523 177.909 212.796 174.455C207.069 171 202.523 166.318 199.159 160.409C195.887 154.5 194.25 147.955 194.25 140.773C194.25 133.5 195.932 126.955 199.296 121.136C202.659 115.227 207.205 110.545 212.932 107.091C218.659 103.636 225.069 101.909 232.159 101.909C237.614 101.909 242.432 102.955 246.614 105.045C250.887 107.045 254.25 109.909 256.705 113.636L253.569 117.727V74.7727H274.023V178H254.932V164.364L256.841 168.591C254.296 172.227 250.841 175 246.478 176.909C242.114 178.727 237.387 179.636 232.296 179.636ZM234.75 161.227C238.478 161.227 241.75 160.364 244.569 158.636C247.387 156.909 249.569 154.5 251.114 151.409C252.75 148.318 253.569 144.773 253.569 140.773C253.569 136.773 252.75 133.227 251.114 130.136C249.569 127.045 247.387 124.636 244.569 122.909C241.75 121.182 238.478 120.318 234.75 120.318C231.023 120.318 227.659 121.227 224.659 123.045C221.75 124.773 219.478 127.182 217.841 130.273C216.205 133.273 215.387 136.773 215.387 140.773C215.387 144.773 216.205 148.318 217.841 151.409C219.478 154.5 221.75 156.909 224.659 158.636C227.659 160.364 231.023 161.227 234.75 161.227Z" fill="white"/>
<mask id="mask0_82_2197" style="mask-type:alpha" maskUnits="userSpaceOnUse" x="0" y="0" width="300" height="300">
<rect width="300" height="300" rx="54.5455" fill="black"/>
</mask>
<g mask="url(#mask0_82_2197)">
<path d="M92.9897 240.303C4.27122 263.637 -109.091 230.303 -109.091 286.97V313.637H300V163.637C226.068 170.303 208.198 210.003 92.9897 240.303Z" fill="url(#paint1_linear_82_2197)"/>
</g>
<defs>
<linearGradient id="paint0_linear_82_2197" x1="150" y1="300" x2="150" y2="0" gradientUnits="userSpaceOnUse">
<stop stop-color="#044645"/>
<stop offset="1" stop-color="#0AACAA"/>
</linearGradient>
<linearGradient id="paint1_linear_82_2197" x1="95.4541" y1="313.637" x2="95.4541" y2="143.637" gradientUnits="userSpaceOnUse">
<stop stop-color="#017777"/>
<stop offset="1" stop-color="#02DDDD"/>
</linearGradient>
</defs>
</svg>
